<svg version="1.1" xmlns="http://www.w3.org/2000/svg" xmlns:xlink="http://www.w3.org/1999/xlink" x="0px" y="0px" width="200px"
	 height="200px" viewBox="0 0 200 200" enable-background="new 0 0 200 200" xml:space="preserve">
<g>
	<g>
		<g>
			<path fill="#FFFFFF" d="M86.411,30.251c2.424,1.417,5.05,0.607,5.05,0.607l0.606-5.059c0,0-1.313-0.202-1.616-0.304
				c-0.303-0.101-1.515-1.417-1.515-1.417s-2.323-6.071-3.434-7.69c-1.111-1.619-3.737-1.113-3.737-1.113
				c-1.818,0.101-1.212,5.363-0.202,9.005S83.987,28.835,86.411,30.251z"/>
			<path fill="#FFFFFF" d="M116.204,135.076c0,0-9.796-1.113-10.099-1.214c-0.303-0.101-9.19-7.69-9.19-7.69
				s-4.242-5.261-4.646-5.767c-0.404-0.506-8.52-2.802-8.887-2.631c-0.367,0.171-21.612,0-22.42-0.101c0,0-3.03,2.125-3.737,2.226
				c-0.707,0.101-1.818,1.619-1.818,1.619s-0.303,2.428-0.404,2.934c-0.101,0.506,3.131,0,3.131,0l4.242,2.428l7.574,2.024
				l2.929,2.125l-2.727,5.464c0,0-7.372,0.911-7.776,0.911c-0.404,0-1.111,1.72-1.111,1.72l1.818,3.845l10.402,2.732l1.515-0.708
				l1.01-6.476l2.121-1.113l2.525-0.708l2.323,2.833l1.01-0.202l1.515-1.417l2.727,2.024l1.919,1.315l-0.909,2.024v3.744
				l0.707,5.767l0.202,4.654l-1.313,2.226l-4.242,4.553l-2.626,2.226l-2.525,1.922l-3.131,1.72l-2.626,1.923l-5.555,4.148
				l-3.838,3.44v4.047l2.222,2.833l3.131-1.821l1.515,1.315l1.616-0.405l5.858,0.506l1.515-2.226l0.404-5.363l4.444-2.125
				l9.19-5.869l7.069-7.892l4.141-6.577l4.545-6.273V145.7l4.949-3.036l4.04-3.238L116.204,135.076z"/>
		</g>
		<g>
			<g>
				<path fill="#F7D0D9" d="M90.782,25.898c1.266-0.089,3.03-0.736,5.487-2.352c0,0,21.056-14.064,27.794-12.095
					c0,0,21.898-1.969,16.564,15.47c0,0-3.65,6.188-15.722,7.313c0,0-8.703,0.844-8.984,3.657c-0.281,2.813-2.34-3.844-2.34-3.844
					s7.112-5.157,14.412-5.157c0,0,12.353-5.907,5.615-10.689c0,0-9.265-5.063-20.775,2.531c0,0-12.907,10.202-22.322,10.374"/>
			</g>
			<g>
				<path fill="#F7D0D9" d="M100.105,145.996c0,0-4.305,11.064-10.481,14.814c0,0-1.685-16.127,0.936-18.564
					C90.56,142.246,97.485,145.808,100.105,145.996z"/>
			</g>
			<g>
				<path fill="#F7D0D9" d="M56.121,117.493c0.213,0.767,4.679,2.625,5.241,2.625s10.107,0.188,8.235,5.626
					c-1.113,3.235,12.166-12.189,22.647-1.875l2.433,5.438c0,0-3.743-1.875-3.556-0.938c0.187,0.938,0,3.563,0,3.563
					s11.979,5.438,14.037,3.188c2.059-2.25,0.749-0.188,0.749-0.188s9.031,7.594,16.471,3.563l-4.866,10.501
					c0,0,14.412,2.063,15.722,0.938c1.31-1.125-1.684-12.939,9.733-28.315c0,0,3.93-12.189-0.749-12.189
					c-0.749,0,7.112-21.189-26.016-1.875c0,0,17.406-6.751,17.594-9.001s4.167-5.916-0.562-12.376
					c-2.059-2.813-1.03-19.081-1.123-24.565c-0.054-3.186-5.428-2.438-5.428-2.438s0.561-11.814-8.797-12.001
					c0,0-4.1,1.611,1.132-10.914c0,0-0.196-6.712-5.437-2.212c0,0-4.492,4.688-4.118,12.939c0,0-7.299-9.188-12.914-6.563
					c0,0-6.925,6.001-5.241,11.439c0,0-7.674-6.563-10.107,0.938L79.33,80.552c0,0-3.182,3.938-2.059,7.313
					c0.562,1.688,2.62,2.813,4.679,2.438c0.992-0.181,3.205-1.256,5.989-0.938c0.871,0.1,9.09-3.851,9.92-3.75
					c2.365,0.287-3.032,7.225-3.182,7.501c-1.123,2.063-4.679,7.688-2.62,13.314c0.547,1.494-3.556,3.563-7.674,3
					c-6.338-0.866,6.364-10.876-6.364-3.188c0,0-14.599-2.063-11.043,6.001C66.977,112.243,55.186,114.118,56.121,117.493z"/>
			</g>
		</g>
		<g>
			<path fill="#1D1D1B" d="M112.42,86.01c-0.303-0.108-0.614,0.057-0.713,0.349c-0.733,2.158-1.652,4.21-2.731,6.102
				c-0.154,0.27-0.061,0.613,0.208,0.767c0.088,0.051,0.184,0.075,0.279,0.075c0.195,0,0.384-0.101,0.487-0.283
				c1.114-1.956,2.064-4.074,2.818-6.296C112.87,86.43,112.712,86.109,112.42,86.01z"/>
			<path fill="#1D1D1B" d="M112.054,51.49c-0.103-0.294-0.421-0.453-0.715-0.347c-0.292,0.101-0.447,0.422-0.347,0.716
				c0.053,0.154,5.288,15.631,1.801,30.681c-0.07,0.303,0.116,0.604,0.419,0.675c0.044,0.011,0.086,0.015,0.127,0.015
				c0.257,0,0.487-0.176,0.546-0.435C117.445,67.433,112.109,51.648,112.054,51.49z"/>
			<path fill="#1D1D1B" d="M143.413,108.927c0.384-2.986,0.866-7.023-1.937-9.5c-1.705-1.508-4.32-1.816-6.767-1.455
				c1.521-3.054,1.749-6.723,0.222-10.06l-0.428-0.938c-0.082-0.181-0.216-0.315-0.366-0.425c0.011-0.062,0.037-0.119,0.037-0.184
				V63.778c0-3.334-2.707-6.047-5.992-6.047l-0.189-0.008V55.19c0-5.195-4.218-9.423-9.357-9.423h-0.002l-1.349-0.056
				c-0.026-3.317,0.229-6.551,2.492-8.622c2.224-2.037,5.205-2.406,8.361-2.795c0.945-0.116,1.886-0.233,2.801-0.393
				c3.494-0.611,6.005-1.653,7.903-3.279c3.117-2.663,4.492-6.177,3.869-9.893c-0.66-3.938-3.523-7.438-7.289-8.92
				c-7.745-3.043-18.668-0.264-25.667,3.037c-3.81,1.798-7.519,3.901-11.107,5.933c-1.834,1.039-3.667,2.079-5.521,3.083
				c-1.375,0.745-2.45,0.923-3.189,0.543c-1.601-0.833-2.011-4.305-2.211-5.975c-0.294-2.47-2.097-4.443-4.192-4.593
				c-1.452-0.127-3.176,0.723-3.873,3.338c-0.399,1.507-0.182,3.011,0.11,4.41c0.741,3.529,1.906,6.036,3.665,7.889
				c4.113,4.329,10.48,4.059,17.946-0.774c8.662-5.604,18.481-11.95,28.525-10.28c2.244,0.374,3.661,1.151,4.209,2.314
				c0.369,0.781,0.275,1.68-0.087,2.504c-0.218,0.178-0.355,0.429-0.395,0.707c-0.34,0.511-0.769,0.966-1.244,1.297
				c-1.614,1.125-4.314,1.644-7.174,2.193c-6.565,1.259-14.737,2.828-15.88,12.86c-0.248,2.175-0.796,3.996-1.538,5.258
				c-1.046-3.81-4.497-6.631-8.628-6.631c-4.955,0-8.984,4.037-8.984,9.001v1.556c-1.113-0.956-2.541-1.556-4.119-1.556
				c-3.509,0-6.363,2.861-6.363,6.377l0.009,15.235c-0.634,5.021-2.02,12.704-3.123,14.055c-1.057,1.292-1.011,4.162-0.991,4.683
				c0,1.478,0.908,2.72,2.156,3.16c-0.07,0.654,0.087,1.472,0.779,2.364c0.11,0.143,0.276,0.218,0.443,0.218
				c0.121,0,0.241-0.04,0.344-0.119c0.246-0.191,0.29-0.543,0.099-0.789c-0.487-0.628-0.59-1.136-0.562-1.506
				c0.715-0.032,1.363-0.322,1.876-0.785c0.368,0.332,0.803,0.578,1.287,0.701c-0.047,0.639,0.13,1.427,0.792,2.28
				c0.11,0.143,0.276,0.218,0.443,0.218c0.121,0,0.241-0.04,0.344-0.119c0.246-0.191,0.29-0.545,0.099-0.789
				c-0.499-0.643-0.599-1.163-0.563-1.535c0.61-0.084,1.161-0.352,1.61-0.756c0.479,0.432,1.077,0.708,1.737,0.77
				c-0.029,0.626,0.157,1.388,0.796,2.211c0.11,0.143,0.276,0.218,0.443,0.218c0.121,0,0.241-0.04,0.344-0.119
				c0.246-0.191,0.29-0.545,0.099-0.789c-0.551-0.71-0.611-1.263-0.544-1.639c1.004-0.312,1.793-1.14,2.105-2.204
				c0.517,0.104,1.033,0.171,1.54,0.171c2.261,0,4.374-1.013,5.858-2.903c0.106-0.135,0.185-0.284,0.28-0.425
				c0.07,1.687-0.08,2.807-0.091,2.889c-0.977,1.444-2.111,2.901-3.439,4.271c-0.089,0.092-0.147,0.199-0.198,0.309
				c-3.531,3.312-4.659,8.521-2.809,12.988c-1.514,0.462-3.022,1.03-4.298,1.553c-0.139-0.224-0.347-0.406-0.619-0.489
				c-0.492-0.149-0.948-0.271-1.419-0.404c1.657-2.112,1.418-4.03,0.559-5.138c-0.794-1.028-2.092-1.327-3.014-0.719
				c-1.116,0.745-5.953,3.729-5.953,3.729l0.256,0.418c-0.682-0.103-1.416-0.287-2.198-0.495c-1.954-0.516-4.165-1.103-6.223-0.327
				c-1.191,0.45-2.154,1.402-2.711,2.679c-0.488,1.117-0.603,2.389-0.365,3.56c-1.642,0.386-5.742,1.502-9.161,3.718
				c-0.669,0.433-1.724,1.51-1.263,3.835c0.049,0.246,0.129,0.509,0.208,0.772c-0.831,1.037-1.723,2.566-0.727,4.68
				c0.089,0.188,0.209,0.309,0.316,0.46c-0.04,0.1-0.086,0.199-0.096,0.31c-0.013,0.143-0.297,3.553,1.624,6.12
				c0.216,0.288,0.551,0.45,0.898,0.45c0.107,0,0.215-0.015,0.321-0.046c0.451-0.136,0.77-0.538,0.799-1.009
				c0.101-1.606,0.452-3.371,0.753-3.83c0.216-0.1,0.379-0.27,0.494-0.472c0.301,0.227,0.599,0.437,0.871,0.626
				c0.143,0.099,0.309,0.173,0.46,0.264c-0.012,0.051-0.041,0.095-0.046,0.147c-0.013,0.143-0.297,3.553,1.623,6.12
				c0.217,0.288,0.553,0.45,0.899,0.45c0.107,0,0.215-0.015,0.322-0.046c0.45-0.136,0.768-0.538,0.798-1.009
				c0.101-1.606,0.452-3.371,0.755-3.83c0.205-0.095,0.37-0.251,0.484-0.441h0c1.785,1.198,5.127,4.14,1.843,7.61
				c-0.067-0.419-0.125-0.869-0.152-1.306c-0.031-0.47-0.349-0.872-0.801-1.006c-0.445-0.136-0.934,0.024-1.22,0.402
				c-0.785,1.049-1.1,2.267-1.224,3.221c-0.157-0.06-0.311-0.111-0.461-0.148c-0.176-0.527-0.354-1.532-0.412-2.468
				c-0.031-0.47-0.349-0.872-0.801-1.006c-0.445-0.136-0.935,0.026-1.218,0.402c-1.519,2.028-1.294,4.714-1.284,4.826
				c0.024,0.259,0.154,0.485,0.331,0.668c-0.11,1.555,0.844,3.465,3.248,4.78c3.803,2.077,9.227,2.386,12.123,2.386
				c0.621,0,1.123-0.503,1.123-1.125c0-0.338-0.149-0.642-0.386-0.848c-0.175-1.209,0.546-5.232,1.204-5.894
				c0.719-0.53,1.647-0.938,2.823-1.239c0.195,0.22,0.393,0.429,0.583,0.631c0.989,1.044,1.25,1.426,1.086,1.951
				c-0.149,0.481,0.037,1.002,0.456,1.277c0.423,0.275,0.972,0.24,1.351-0.09c0.062-0.055,0.976-0.869,1.803-2.141
				c0.636,0.628,1.783,1.676,3.409,2.818c-0.263,1.865-1.312,10.192,0.087,15.097c1.112,3.896-14.057,13.068-19.769,16.521
				c-0.827,0.501-1.57,0.949-2.2,1.338c-2.661,1.639-3.83,3.092-3.904,4.861c-0.035,0.857,0,3.613,0,3.613l0.019,0
				c0.084,1.834,1.279,3.347,2.88,3.784c-0.033,0.614,0.147,1.364,0.775,2.172c0.11,0.143,0.276,0.218,0.443,0.218
				c0.121,0,0.241-0.04,0.344-0.119c0.246-0.191,0.29-0.543,0.099-0.789c-0.434-0.559-0.547-1.015-0.541-1.363
				c0.985-0.051,1.878-0.488,2.532-1.193c0.395,0.425,0.881,0.744,1.416,0.953c-0.065,0.636,0.09,1.429,0.76,2.292
				c0.11,0.143,0.276,0.218,0.443,0.218c0.121,0,0.241-0.04,0.344-0.119c0.246-0.191,0.29-0.543,0.099-0.789
				c-0.434-0.56-0.547-1.016-0.541-1.364c0.065,0.004,0.126,0.021,0.192,0.021c1.059,0,2.018-0.464,2.713-1.212
				c0.306,0.33,0.671,0.592,1.066,0.796c-0.111,0.659,0.009,1.512,0.737,2.449c0.11,0.143,0.276,0.218,0.443,0.218
				c0.121,0,0.241-0.04,0.344-0.119c0.246-0.191,0.29-0.543,0.099-0.789c-0.451-0.581-0.557-1.053-0.541-1.404
				c0.187,0.03,0.373,0.062,0.567,0.062c2.114,0,3.836-1.85,3.836-4.125l-0.002-0.424c-0.011-1.321-0.026-3.318,0.915-3.905
				c0.755-0.466,1.61-0.815,2.516-1.184l0.945-0.391c5.31-2.281,16.54-10.671,18.959-17.538c0.866-2.457,2.209-4.072,3.509-5.634
				c1.908-2.292,3.7-4.472,3.297-8.532c2.284-0.739,4.674-1.837,7.156-3.366c-0.711,1.456-1.539,3.07-2.165,4.255
				c-0.144,0.271-0.164,0.574-0.083,0.847c-0.018,0.08-0.049,0.157-0.049,0.243c0,1.946,1.262,3.571,2.95,4.004
				c-0.135,0.668-0.031,1.554,0.726,2.529c0.11,0.143,0.276,0.218,0.443,0.218c0.121,0,0.243-0.04,0.344-0.119
				c0.246-0.191,0.29-0.545,0.099-0.789c-0.617-0.795-0.599-1.391-0.488-1.742c0.963-0.064,1.835-0.496,2.477-1.187
				c0.409,0.44,0.915,0.765,1.473,0.972c-0.171,0.679-0.097,1.615,0.705,2.647c0.11,0.143,0.276,0.218,0.443,0.218
				c0.121,0,0.243-0.04,0.344-0.119c0.246-0.191,0.29-0.545,0.099-0.789c-0.61-0.786-0.6-1.379-0.492-1.731
				c0.048,0.002,0.093,0.015,0.141,0.015c1.06,0,2.02-0.464,2.715-1.213c0.327,0.352,0.715,0.634,1.142,0.841
				c-0.217,0.687-0.196,1.675,0.661,2.778c0.11,0.143,0.276,0.218,0.443,0.218c0.121,0,0.243-0.04,0.344-0.119
				c0.246-0.191,0.29-0.545,0.099-0.789c-0.636-0.819-0.597-1.424-0.476-1.771c0.165,0.023,0.329,0.054,0.501,0.054
				c2.114,0,3.836-1.85,3.836-4.127c0-0.074-0.028-0.138-0.042-0.208c0.023-1.296,0.663-7.243,0.946-9.755l9.274-16.723
				C148.455,114.076,144.928,110.191,143.413,108.927z M120.363,14.238c-0.044,0.148-0.358,1.327-0.117,2.457
				c-7.15,1.757-13.902,6.121-20.094,10.126c-0.079,0.051-0.163,0.101-0.243,0.152c-0.034-0.282-0.173-0.552-0.411-0.743
				c-0.458-0.367-0.511-0.774-0.515-0.837c-0.015-0.609-0.513-1.097-1.123-1.097c-0.621,0-1.123,0.503-1.123,1.125
				c0,0.152,0.037,1.51,1.358,2.567c0.019,0.015,0.044,0.009,0.064,0.022c-4.281,2.345-9.464,3.734-13.092-0.086
				c-1.459-1.536-2.443-3.698-3.095-6.799c-0.235-1.13-0.415-2.318-0.136-3.371c0.173-0.653,0.632-1.754,1.542-1.672
				c0.877,0.064,1.939,1.081,2.123,2.615c0.261,2.211,0.748,6.327,3.406,7.707c1.441,0.745,3.22,0.558,5.293-0.563
				c1.864-1.009,3.711-2.057,5.558-3.103c2.577-1.461,5.232-2.917,7.913-4.302c0.09,0.648,0.293,1.445,0.814,1.968
				c0.222,0.222,0.511,0.332,0.803,0.332c0.287,0,0.572-0.108,0.792-0.325c0.439-0.439,0.443-1.147,0.004-1.587
				c-0.121-0.156-0.241-0.791-0.243-1.281c0-0.069-0.028-0.129-0.04-0.195c0.306-0.149,0.606-0.322,0.913-0.467
				c3.072-1.449,6.711-2.655,10.386-3.385C120.757,13.61,120.468,13.865,120.363,14.238z M83.113,103.298
				c0.068,0.018,0.281,0.171,0.368,0.519c0.187,0.742-0.347,1.765-1.401,2.763c-1.05-0.254-2.066-0.477-3.037-0.651
				C80.546,104.989,82.555,103.72,83.113,103.298z M55.971,122.974c-0.202-0.429-0.225-0.774-0.17-1.105
				c0.233,0.42,0.493,0.852,0.78,1.298c0.064,0.099,0.16,0.155,0.246,0.226C56.345,123.377,56.104,123.257,55.971,122.974z
				 M67.645,125.6c-1.827,0.736-4.654,0.338-6.442-0.905c-0.861-0.598-1.591-1.136-2.067-1.756l0.088-0.04
				c3.175-1.428,6.175-2.782,8.913-0.312c0.535,0.486,0.783,1.105,0.676,1.703C68.709,124.872,68.294,125.338,67.645,125.6z
				 M84.284,135.627c-0.14,0.855-0.533,1.646-0.959,2.288c-0.336-0.514-0.765-0.967-1.156-1.38c-0.303-0.319-0.621-0.653-0.91-1.024
				c-0.265-0.338-0.695-0.494-1.116-0.409c-1.807,0.378-3.226,0.958-4.338,1.776c-1.369,1.004-2.154,5.107-2.114,7.401
				c-2.593-0.103-6.703-0.53-9.545-2.081c-1.69-0.924-2.165-2.11-2.091-2.716l0.902-0.181c0.024-0.005,0.042-0.019,0.065-0.025
				c0.027,0.013,0.069,0.03,0.084,0.038c0.489,0.245,0.976,0.341,1.458,0.381c0.057,0.009,0.104,0.054,0.163,0.054
				c0.072,0,0.147-0.007,0.219-0.022l0.064-0.013c0.533-0.015,1.05-0.125,1.547-0.31l0.517-0.104
				c0.308-0.062,0.553-0.254,0.714-0.504c0.833-0.513,1.544-1.131,2.077-1.673c0.198-0.089,0.372-0.185,0.548-0.281
				c0.918,0.347,1.625,0.158,2.015-0.05c1.375-0.73,1.917-2.716,1.658-6.072c-0.127-1.677-0.77-2.975-1.904-3.861
				c-0.527-0.41-1.11-0.682-1.688-0.863c0.248-0.403,0.447-0.834,0.533-1.315c0.239-1.358-0.276-2.767-1.384-3.769
				c-2.248-2.023-4.601-2.198-6.837-1.71c-2.171-0.467-4.96-1.214-6.168-2.156c0.051-0.228,0.146-0.407,0.305-0.51
				c3.392-2.199,7.728-3.259,8.844-3.507c0.362,0.538,0.806,1.027,1.319,1.46c-0.282,2.133,0.252,3.796,1.67,4.805
				c0.755,0.536,1.577,0.809,2.421,0.809c0.353,0,0.711-0.048,1.068-0.145c2.068-0.554,3.61-2.51,4.301-4.015
				c0.035-0.076,0.008-0.153,0.008-0.232c2.477-0.48,6.655-1.211,7.063-0.067c0.042,0.119,0.013,0.279-0.061,0.376
				c-0.388,0.483-0.311,1.191,0.173,1.58c0.206,0.167,0.454,0.248,0.702,0.248c0.329,0,0.654-0.145,0.875-0.422
				c0.564-0.703,0.728-1.67,0.43-2.529c-1.092-3.074-5.933-2.125-10.197-1.279c-1.535,0.301-3.268,0.646-3.898,0.541
				c-1.222-0.197-2.298-0.735-3.131-1.451c-0.276-1.772,1.731-3.174,1.753-3.188c0.259-0.174,0.327-0.523,0.156-0.78
				c-0.175-0.261-0.522-0.33-0.779-0.156c-0.094,0.062-1.705,1.177-2.177,2.86c-0.076-0.138-0.188-0.261-0.247-0.405
				c-0.344-0.846-0.318-1.883,0.068-2.769c0.314-0.716,0.827-1.239,1.448-1.475c1.377-0.523,3.147-0.053,4.854,0.398
				c0.906,0.242,1.842,0.49,2.742,0.596c2.253,0.269,4.655,0.779,7.409,1.551c-0.185,0.086-0.34,0.159-0.421,0.198
				c-0.559,0.268-0.796,0.941-0.529,1.501c0.268,0.558,0.939,0.793,1.498,0.53c2.268-1.086,8.64-3.813,11.563-3.661
				c0.386,0.664,0.64,3.41-0.601,5.79c-1.031,1.973-2.682,2.813-4.924,2.492c-0.011-0.001-0.021,0.003-0.032,0.002
				c-0.028-0.002-0.058-0.012-0.086-0.013c-0.065-0.003-0.126,0.022-0.19,0.032c-0.059,0.009-0.117,0.012-0.174,0.029
				c-0.068,0.022-0.127,0.057-0.19,0.092c-0.072,0.038-0.14,0.074-0.202,0.126c-0.038,0.032-0.065,0.071-0.099,0.108
				c-0.064,0.07-0.124,0.14-0.17,0.226c-0.03,0.055-0.043,0.116-0.063,0.175c-0.02,0.061-0.054,0.113-0.064,0.178
				c-0.003,0.021,0.005,0.04,0.004,0.061c-0.002,0.02-0.014,0.037-0.015,0.058c-0.002,0.059,0.021,0.11,0.027,0.166
				c0.008,0.074,0.013,0.146,0.036,0.215c0.023,0.072,0.06,0.134,0.097,0.199c0.034,0.06,0.064,0.12,0.108,0.173
				c0.049,0.059,0.107,0.103,0.166,0.15c0.053,0.043,0.102,0.086,0.163,0.119c0.068,0.037,0.143,0.056,0.219,0.078
				c0.051,0.015,0.095,0.045,0.149,0.053c0.037,0.005,0.068,0.003,0.104,0.008c0.005,0,0.009,0.003,0.014,0.003
				c1.143,0.04,2.687,0.927,3.904,1.787c-1.557,0.826-2.687,2.162-2.862,2.373c-0.239,0.292-0.316,0.688-0.204,1.048
				c0.114,0.363,0.399,0.644,0.763,0.747c0.774,0.222,1.441,1.459,1.772,2.496c-2.215-1.222-3.904-0.048-3.985,0.007
				c-0.27,0.193-0.441,0.492-0.467,0.822c-0.029,0.33,0.09,0.655,0.325,0.89c0.594,0.596,0.884,3.624,0.838,6.511
				c-1.323-0.198-2.994-0.385-4.81-0.431C84.865,134.693,84.374,135.073,84.284,135.627z M69.681,118.027
				c0.206,0.16,0.45,0.237,0.691,0.237c0.333,0,0.665-0.149,0.886-0.433l0.162-0.209c0.284-0.364,0.306-0.848,0.099-1.229
				c0.9,0.089,2.171-0.118,3.743-0.425c-0.703,1.25-1.888,2.532-3.287,2.907c-0.895,0.24-1.752,0.07-2.551-0.497
				c-1.07-0.76-1.353-1.956-1.297-3.153c0.544,0.327,1.136,0.595,1.766,0.802c-0.087,0.062-0.176,0.122-0.245,0.211l-0.162,0.209
				C69.104,116.937,69.192,117.645,69.681,118.027z M106.505,152.607c-1.36,1.635-2.902,3.487-3.902,6.329
				c-0.106,0.301-0.249,0.611-0.396,0.923c-0.818-1.901-3.054-2.776-4.368-2.973c-0.614-0.101-1.184,0.327-1.277,0.945
				c-0.092,0.615,0.329,1.187,0.943,1.279c0.029,0.004,2.788,0.47,2.788,2.263c0,0.369,0.188,0.68,0.461,0.885
				c-3.127,4.323-8.931,8.953-13.202,11.489c-0.908-2.7-4.7-3.335-4.874-3.36c-0.614-0.099-1.184,0.327-1.277,0.945
				c-0.092,0.615,0.329,1.187,0.943,1.279c0.029,0.004,2.937,0.51,3.174,2.059c0.009,0.056,0.037,0.103,0.054,0.156
				c-0.238,0.116-0.479,0.234-0.697,0.328l-0.906,0.376c-0.952,0.387-1.937,0.789-2.851,1.356c-2.014,1.255-1.994,4.01-1.978,5.834
				l0.002,0.407c0,1.033-0.713,1.874-1.59,1.874c-0.877,0-1.592-0.842-1.592-1.874c0-0.622-0.502-1.125-1.123-1.125
				c-0.621,0-1.123,0.503-1.123,1.125c0,1.033-0.713,1.874-1.59,1.874s-1.59-0.842-1.59-1.874c0-0.622-0.502-1.125-1.123-1.125
				c-0.621,0-1.123,0.503-1.123,1.125c0,1.033-0.715,1.874-1.592,1.874c-0.877,0-1.59-0.842-1.59-1.874
				c0-0.004-0.002-0.007-0.002-0.011c-0.007-0.596-0.028-2.604,0.002-3.305c0.026-0.657,0.386-1.529,2.834-3.039
				c0.625-0.385,1.364-0.831,2.185-1.327c6.176-3.735,12.22-7.546,16.211-11.074c1.101-0.014,3.668,0.208,4.4,1.359
				c0.215,0.336,0.577,0.521,0.948,0.521c0.206,0,0.417-0.057,0.603-0.176c0.522-0.334,0.678-1.028,0.344-1.554
				c-0.897-1.412-2.675-1.987-4.173-2.228c1.947-2.144,2.937-4.149,2.433-5.915c-0.33-1.157-0.501-2.564-0.575-4.037
				c1.645-0.335,3.96-0.476,4.962,0.341c0.208,0.171,0.461,0.255,0.711,0.255c0.325,0,0.647-0.141,0.869-0.413
				c0.393-0.481,0.322-1.189-0.158-1.582c-1.757-1.441-4.701-1.188-6.426-0.879c0.026-2.691,0.283-5.298,0.467-6.828
				c3.221,1.877,7.591,3.596,12.852,3.596c1.807,0,3.724-0.224,5.726-0.692C109.48,148.994,108.227,150.54,106.505,152.607z
				 M143.108,119.759l-6.037,10.887c-1.17-1.535-3.897-1.057-4.445-0.939c-0.608,0.132-0.994,0.73-0.864,1.336
				c0.132,0.611,0.739,0.982,1.334,0.866c0.932-0.204,2.031-0.121,2.2,0.086c0.183,0.275,0.471,0.415,0.772,0.461l-2.318,4.18
				c-0.07,0.13-0.116,0.272-0.134,0.42c-0.101,0.897-0.989,8.803-0.989,10.324c0,0.063,0.026,0.117,0.036,0.177
				c-0.029,1.005-0.721,1.816-1.58,1.816c-0.877,0-1.59-0.842-1.59-1.877c0-0.622-0.502-1.125-1.123-1.125
				c-0.621,0-1.123,0.503-1.123,1.125c0,1.035-0.715,1.877-1.592,1.877s-1.59-0.842-1.59-1.877c0-0.622-0.502-1.125-1.123-1.125
				s-1.123,0.503-1.123,1.125c0,1.035-0.713,1.877-1.59,1.877s-1.592-0.842-1.592-1.877c0-0.073-0.028-0.137-0.042-0.206
				c0.545-1.033,3.184-6.087,3.692-7.78c1.984-0.731,3.765-1.892,5.134-3.502c3.262-3.837,4.249-7.529,5.119-10.785
				c0.167-0.626,0.335-1.232,0.511-1.828c0.058-0.021,0.12-0.015,0.176-0.046c0.02-0.011,2.055-1.114,3.294-0.246
				c0.509,0.358,1.211,0.235,1.564-0.275c0.358-0.51,0.232-1.211-0.274-1.567c-1.234-0.868-2.65-0.834-3.764-0.585
				c0.793-1.715,1.939-3.286,3.952-4.698c0.507-0.356,0.632-1.057,0.274-1.567c-0.355-0.51-1.055-0.633-1.564-0.275
				c-4.345,3.046-5.315,6.667-6.339,10.504c-0.849,3.175-1.728,6.458-4.661,9.908c-3.656,4.303-11.208,4.806-16.492,1.101
				l-0.636-0.444c-2.647-1.857-4.356-4.562-4.687-7.419c-0.287-2.472,0.476-4.867,2.147-6.742c0.412-0.464,0.373-1.176-0.09-1.589
				c-0.463-0.411-1.173-0.374-1.586,0.09c-2.103,2.362-3.064,5.379-2.702,8.5c0.406,3.496,2.457,6.777,5.63,9.003l0.636,0.444
				c2.799,1.962,6.078,2.923,9.252,2.923c0.022,0,0.042-0.003,0.064-0.003c-18.041,10.937-30.348-2.78-30.892-3.405
				c-0.014-0.016-0.033-0.022-0.048-0.037c1.939,0.105,3.649,0.359,4.803,0.571c0.318,0.051,0.643-0.024,0.897-0.224
				c0.254-0.202,0.41-0.501,0.426-0.824c0.075-1.404,0.195-5.384-0.583-7.865c0.364,0.086,0.816,0.301,1.331,0.767
				c0.869,0.782,1.579,0.602,1.928,0.428c0.461-0.233,0.985-0.8,0.855-2.186c-0.127-1.354-0.86-3.351-2.119-4.538
				c0.728-0.628,1.722-1.292,2.612-1.292c0.465,0,0.882-0.288,1.048-0.723c0.167-0.435,0.048-0.927-0.298-1.239
				c-0.215-0.194-1.359-1.19-2.816-2.096c0.937-0.504,1.636-1.186,2.132-1.838c0.496-0.652,0.891-1.401,1.19-2.189
				c2.763,0.653,5.105,0.998,6.996,0.998c2.65,0,4.459-0.642,5.466-1.932c1.742-2.23,0.164-5.261,0.097-5.388
				c-0.292-0.552-0.976-0.756-1.52-0.464c-0.546,0.292-0.755,0.973-0.463,1.523c0.011,0.018,0.941,1.888,0.118,2.942
				c-0.517,0.658-2.541,1.932-10.128,0.151c0.276-1.702,0.163-3.356-0.31-4.447c-0.494-1.138-1.263-1.38-1.68-1.42
				c-0.906-0.093-2.037,0.044-3.247,0.307c-0.601-1.323-0.854-2.739-0.814-4.138c0.165-0.054,0.322-0.135,0.451-0.267
				c0.169-0.171,4.156-4.14,11.581-1.773c0.586,0.182,1.224-0.141,1.41-0.732c0.189-0.591-0.138-1.224-0.73-1.413
				c-5.822-1.859-9.915-0.321-12.083,0.994c0.545-1.401,1.423-2.683,2.606-3.708c0.132-0.114,0.222-0.255,0.287-0.405
				c0.483-0.511,0.939-1.031,1.376-1.556c0.079-0.027,0.164-0.021,0.237-0.067c0.011-0.007,1.162-0.688,4.126-0.38
				c0.636,0.055,1.169-0.382,1.235-1c0.066-0.617-0.382-1.173-0.998-1.237c-0.993-0.105-1.827-0.113-2.533-0.068
				c0.756-1.117,1.425-2.221,1.998-3.275c0.072-0.038,0.146-0.068,0.21-0.122c0.151-0.132,3.768-3.16,8.714-1.83
				c0.608,0.163,1.215-0.2,1.375-0.798c0.16-0.6-0.197-1.217-0.796-1.378c-3.162-0.844-5.864-0.239-7.779,0.561
				c0.551-1.293,0.935-2.37,1.168-3.086c0.509-0.652,2.888-3.392,6.933-3.392c0.013,0,0.024,0,0.037,0
				c0.619,0,1.121-0.501,1.123-1.121c0.002-0.637-0.498-1.14-1.162-1.13c-2.76,0-4.878,1.007-6.364,2.069
				c0.128-1.518,0.24-3.381,0.135-4.539c-0.055-0.622-0.612-1.055-1.22-1.02c-0.619,0.057-1.073,0.604-1.018,1.222
				c0.164,1.818-0.305,5.943-0.36,6.424c-0.028,0.098-0.098,0.342-0.227,0.735c-0.004,0.016-0.012,0.031-0.015,0.047
				c-0.358,1.088-1.108,3.129-2.337,5.519c-0.184-2.36-0.784-5.419-2.407-8.417c-1.798-4.106,0.246-14.109,1.184-17.618
				c0.162-0.6-0.193-1.217-0.792-1.378c-0.599-0.156-1.215,0.196-1.375,0.793c-0.147,0.547-3.562,13.455-1.066,19.122
				c1.456,3.307,1.529,5.834,0.213,7.509c-1.731,2.2-4.238,2.327-6.003,1.712c-1.803-0.624-3.906-2.397-3.906-5.331v-6.852
				c0-0.622-0.502-1.125-1.123-1.125s-1.123,0.503-1.123,1.125v6.852c0,3.018,1.693,5.662,4.387,7.013
				c-0.099,0.468-0.436,0.832-0.84,0.832c-0.478,0-0.884-0.501-0.884-1.092c0-0.622-0.502-1.125-1.123-1.125
				s-1.123,0.503-1.123,1.125c0,0.591-0.404,1.092-0.882,1.092c-0.478,0-0.884-0.501-0.884-1.092c0-0.622-0.502-1.125-1.123-1.125
				s-1.123,0.503-1.123,1.125c0,0.591-0.404,1.092-0.882,1.092s-0.884-0.501-0.884-1.132c-0.042-1.193,0.147-2.808,0.483-3.219
				c1.913-2.343,3.347-13.071,3.623-15.338V54.3c0-2.277,1.847-4.127,4.117-4.127c2.272,0,4.119,1.85,4.119,4.127v20.625
				c0,0.622,0.502,1.125,1.123,1.125s1.123-0.503,1.123-1.125V47.923c0-3.723,3.022-6.751,6.738-6.751
				c3.515,0,6.377,2.72,6.679,6.165c-0.59,0.182-1.253,0.151-2.02-0.106c-0.583-0.191-1.222,0.123-1.421,0.712
				c-0.195,0.589,0.123,1.226,0.711,1.424c0.684,0.229,1.342,0.343,1.97,0.343c0.932,0,1.799-0.253,2.588-0.758
				c2.753-1.758,3.621-6.019,3.893-8.401c0.02-0.179,0.058-0.337,0.084-0.51c0.71-0.078,1.566-0.041,1.798,0.077
				c0.162,0.081,0.333,0.119,0.504,0.119c0.41,0,0.807-0.226,1.005-0.62c0.276-0.556,0.053-1.233-0.5-1.512
				c-0.657-0.328-1.592-0.367-2.286-0.346c1.993-5.909,7.813-7.028,13.466-8.114c3.099-0.596,6.027-1.156,8.032-2.551
				c0.724-0.504,1.372-1.194,1.883-1.978c0.294-0.003,0.648,0.067,0.885,0.398c0.219,0.308,0.564,0.47,0.912,0.47
				c0.228,0,0.456-0.068,0.654-0.211c0.504-0.36,0.621-1.064,0.259-1.569c-0.5-0.7-1.146-1.056-1.789-1.222
				c0.229-1.047,0.169-2.152-0.328-3.208c-0.882-1.868-2.858-3.07-5.872-3.571c-2.65-0.441-5.258-0.378-7.819,0.044
				c-0.111-0.445-0.013-1.111,0.065-1.397c0.165-0.596-0.182-1.217-0.779-1.384c-0.114-0.033-0.228-0.031-0.341-0.027
				c3.601-0.687,7.216-0.897,10.365-0.313c-0.439,0.425-0.781,0.956-0.781,1.607c0,0.622,0.489,1.193,1.11,1.193
				c0.621,0,1.11-0.435,1.11-1.057c0.101-0.189,0.693-0.576,1.195-0.78c0.094-0.038,0.167-0.103,0.244-0.161
				c3.026,1.206,5.319,4.016,5.849,7.174c0.487,2.907-0.619,5.68-3.112,7.812c-1.579,1.351-3.751,2.233-6.83,2.773
				c-0.88,0.154-1.783,0.264-2.689,0.376c-1.746,0.215-3.521,0.441-5.21,0.953c-0.428-1.003-1.155-1.639-1.258-1.722
				c-0.483-0.385-1.178-0.31-1.568,0.171c-0.388,0.479-0.318,1.184,0.158,1.58c0.127,0.106,0.42,0.41,0.597,0.792
				c-0.813,0.413-1.594,0.926-2.321,1.592c-3.389,3.105-3.286,7.823-3.196,11.985l0.013,0.626c0.013,0.617,0.465,1.127,1.145,1.103
				c0.621-0.013,1.114-0.525,1.101-1.147l-0.001-0.029l1.264,0.051c3.948,0,7.159,3.217,7.159,7.173v3.188
				c-0.05,0.116-0.089,0.24-0.094,0.377c-0.024,0.622,0.458,1.145,1.077,1.171l1.406,0.055c2.09,0,3.792,1.703,3.792,3.797v19.547
				c-0.377-0.59-0.762-1.194-1.123-1.763c-0.82-1.288-1.634-2.567-2.248-3.503c-3.06-4.659-3.928-13.649-3.937-13.739
				c-0.059-0.617-0.572-1.05-1.224-1.015c-0.616,0.059-1.07,0.607-1.013,1.224c0.033,0.347,0.743,7.654,3.251,12.881
				c-2.423-0.613-4.175-0.409-4.269-0.397c-0.614,0.081-1.046,0.646-0.967,1.264c0.081,0.615,0.647,1.037,1.261,0.969
				c0.02-0.007,2.345-0.29,5.301,0.973c0.118,0.051,0.243,0.066,0.365,0.075c0.492,0.765,1.024,1.597,1.585,2.479
				c0.421,0.662,0.796,1.25,1.145,1.796c-5.695-2.143-10.337-0.086-10.576,0.021c-0.564,0.259-0.812,0.927-0.555,1.492
				c0.259,0.567,0.928,0.806,1.489,0.556c0.057-0.029,6.025-2.674,12.346,1.949c0.003,0.002,0.008,0.001,0.011,0.004l0.118,0.258
				c0.558,1.218,0.822,2.495,0.843,3.757c-2.512-1.579-4.634-1.873-4.736-1.887c-0.61-0.077-1.173,0.356-1.255,0.969
				c-0.079,0.615,0.353,1.18,0.965,1.264c0.024,0.002,2.265,0.337,4.697,2.158c-0.354,1.375-0.996,2.662-1.922,3.757
				c-5.873-6.225-12.49-5.139-12.77-5.093c-0.612,0.11-1.018,0.694-0.908,1.305c0.107,0.611,0.706,1.011,1.303,0.91
				c0.057-0.013,5.685-0.93,10.744,4.42c-0.491,0.356-1.02,0.673-1.591,0.935l-12.901,5.94c-0.564,0.259-0.809,0.927-0.551,1.492
				c0.189,0.411,0.594,0.655,1.02,0.655c0.158,0,0.318-0.033,0.469-0.103l12.899-5.94c1.423-0.654,2.643-1.567,3.649-2.649
				c0.008-0.003,0.016-0.001,0.024-0.004c2.356-0.857,5.558-1.002,7.12,0.38c1.943,1.716,1.54,4.859,1.184,7.632l-0.07,0.543
				c-0.055,0.437,0.156,0.87,0.531,1.101C141.825,110.51,146.295,113.371,143.108,119.759z"/>
		</g>
	</g>
</g>
</svg>
