<svg preserveAspectRatio="xMidYMid meet" data-bbox="49.193 20 101.614 159.999" viewBox="49.193 20 101.614 159.999" height="200" width="200" xmlns="http://www.w3.org/2000/svg" data-type="color" role="presentation" aria-hidden="true" aria-label=""><defs><style>#comp-lor3ht6g svg [data-color="1"] {fill: #FFFFFF;}
	#comp-lor3ht6g svg [data-color="3"] {fill: #DDDBD7;}</style></defs>
	<g>
		<path d="m111.823 175.691-1.016-11.682a.494.494 0 0 0-.291-.408l-22.585-10.009-17.938-11.788-19.146-15.874c1.964-1.977 11.022-11.208 16.934-19.168 6.521-8.779 15.829-26.058 21.924-44.872.817-2.523 1.582-5.143 2.322-7.678 2.3-7.88 4.679-16.028 8.927-22.224 2.27-3.31 4.882-5.822 7.986-7.68 3.488-2.087 7.512-3.306 12.301-3.725.682-.06 1.357-.09 2.006-.09 4.213 0 7.674 1.221 10.582 3.733 2.59 2.237 4.676 5.447 6.377 9.812 3.174 8.145 4.384 18.766 5.554 29.038.433 3.796.841 7.382 1.342 10.815 3.319 22.726 5.113 39.59.004 65.902-1.158 5.967-3.641 11.71-7.377 17.071-2.996 4.299-6.801 8.363-11.309 12.081-6.726 5.546-13.049 8.666-14.579 9.384l-2.018-2.638z" fill="#EBD7C3" data-color="1"></path>
		<path d="M123.248 20.985c4.09 0 7.446 1.182 10.26 3.613 2.527 2.184 4.569 5.33 6.24 9.618 3.151 8.085 4.357 18.674 5.524 28.914.433 3.8.842 7.39 1.345 10.831 1.538 10.533 2.939 20.872 3.171 31.563.239 10.972-.767 21.831-3.163 34.174-1.144 5.894-3.597 11.57-7.288 16.87-2.967 4.26-6.737 8.29-11.206 11.978-6.255 5.162-12.162 8.212-14.138 9.165l-1.69-2.206-1.003-11.539a.986.986 0 0 0-.582-.816l-22.548-9.993-17.882-11.751-18.71-15.513c2.563-2.597 10.99-11.285 16.601-18.838 6.545-8.811 15.885-26.147 21.997-45.014.819-2.529 1.586-5.154 2.326-7.692 2.289-7.843 4.657-15.952 8.861-22.083 2.229-3.251 4.791-5.716 7.833-7.535 3.423-2.048 7.378-3.244 12.091-3.657a22.333 22.333 0 0 1 1.961-.089zm0-.985c-.663 0-1.344.03-2.049.092-23.479 2.057-26.05 23.393-31.963 41.645-5.913 18.252-15.167 35.733-21.851 44.73-6.684 8.997-17.269 19.496-17.269 19.496L69.699 142.2l17.995 11.825 22.622 10.026 1.028 11.825 2.346 3.063s28.76-12.575 33.901-39.053c5.141-26.478 3.342-43.188 0-66.067C144.35 51.627 144.654 20 123.248 20z" fill="#000002" data-color="2"></path>
		<path d="M108.721 179.507c-3.55 0-4.592-1.479-5.122-3.866-.254-1.141.466-2.949 1.161-4.699.931-2.342 1.894-4.763 1.084-6.555-.376-.833-1.108-1.448-2.175-1.829a2.814 2.814 0 0 0-.949-.16c-2.332 0-5.259 2.655-8.648 5.729-4.586 4.16-9.784 8.875-15.114 8.875a8.552 8.552 0 0 1-3.044-.559c-2.422-.919-3.625-2.863-3.786-6.118-.148-2.984.614-6.672 1.35-10.239 1.402-6.792 2.852-13.815-2.168-16.024-1.572-.692-3.242-1.359-5.009-2.066-4.489-1.795-9.131-3.65-12.396-6.021-3.628-2.635-4.872-5.392-3.914-8.676.387-1.329.974-1.329 1.195-1.329 1.154 0 3.038 1.545 5.033 3.181 2.801 2.297 5.975 4.901 9.081 5.075.101.006.203.009.305.009 2.898 0 6.323-2.183 9.949-4.494 3.412-2.175 6.941-4.424 9.657-4.424 1.003 0 1.834.303 2.541.926 2.245 1.979.042 5.658-2.29 9.554-1.962 3.277-3.99 6.665-3.287 9.263.291 1.074 1.029 1.944 2.195 2.585.826.454 1.814.684 2.937.684 4.251 0 10.095-3.264 15.746-6.421 5.128-2.865 10.431-5.827 13.84-5.827.712 0 1.305.124 1.812.378 3.716 1.864 1.565 6.75-.925 12.407-1.764 4.009-3.589 8.154-3.589 11.843 0 2.737.404 5.518.761 7.971.907 6.241 1.231 9.805-2.665 10.472-1.391.239-2.559.355-3.566.355z" fill="#D4BA8C" data-color="3"></path>
		<path d="M85.212 125.81c.877 0 1.602.263 2.215.803 1.803 1.589.225 4.568-2.387 8.931-2.014 3.365-4.098 6.845-3.34 9.644.327 1.208 1.145 2.18 2.433 2.888.899.495 1.967.745 3.175.745 4.38 0 10.28-3.296 15.986-6.484 5.073-2.834 10.319-5.764 13.6-5.764.634 0 1.154.107 1.591.326 1.486.745 1.971 1.972 1.622 4.103-.354 2.16-1.531 4.834-2.777 7.665-1.785 4.055-3.631 8.249-3.631 12.042 0 2.773.407 5.572.766 8.042.393 2.705.764 5.26.486 7.062-.268 1.738-1.064 2.565-2.747 2.853-1.366.234-2.506.348-3.485.348-3.251 0-4.14-1.223-4.641-3.48-.221-.993.47-2.73 1.138-4.41.969-2.437 1.971-4.957 1.075-6.94-.434-.959-1.261-1.662-2.458-2.09a3.303 3.303 0 0 0-1.114-.188c-2.522 0-5.371 2.585-8.979 5.857-2.202 1.997-4.697 4.261-7.24 5.956-2.817 1.878-5.285 2.791-7.543 2.791a8.05 8.05 0 0 1-2.869-.527c-2.216-.841-3.318-2.646-3.468-5.681-.144-2.921.611-6.578 1.341-10.115 1.442-6.984 2.932-14.206-2.452-16.575-1.58-.695-3.253-1.364-5.025-2.072-4.461-1.783-9.074-3.628-12.289-5.963-3.437-2.496-4.622-5.082-3.731-8.139.284-.974.603-.974.723-.974.978 0 2.881 1.56 4.72 3.069 2.859 2.345 6.099 5.003 9.366 5.186.109.006.221.009.333.009 3.041 0 6.525-2.22 10.214-4.571 3.353-2.137 6.82-4.347 9.392-4.347zm0-.985c-5.684 0-14.063 8.918-19.606 8.918a5.13 5.13 0 0 1-.278-.008c-5.26-.295-11.117-8.257-14.141-8.257-.745 0-1.318.483-1.668 1.683-2.699 9.255 11.954 13.111 21.594 17.352 9.64 4.242-6.555 28.149 4.627 32.391a8.99 8.99 0 0 0 3.219.591c9.546 0 18.685-14.604 23.762-14.604.273 0 .534.042.783.131 5.398 1.928-1.157 9.255-.386 12.725.604 2.717 1.916 4.252 5.603 4.252 1.022 0 2.228-.118 3.651-.362 6.555-1.123 2.314-10.06 2.314-18.929 0-8.869 11.183-21.208 4.242-24.69-.591-.296-1.273-.43-2.033-.43-7.26 0-21.545 12.248-29.586 12.248-1.006 0-1.915-.192-2.7-.623-7.712-4.242 8.869-16.581 3.47-21.339-.838-.738-1.805-1.049-2.867-1.049z" fill="#000002" data-color="2"></path>
		<path d="M116.96 71.74c-4.643 0-7.702-7.449-8.538-9.757 1.13.667 3.773 1.917 7.704 1.917.334 0 .675-.009 1.013-.028 4.433-.241 7.021-1.926 8.073-2.793-.448 2.307-2.249 9.533-7.35 10.569a4.557 4.557 0 0 1-.902.092z" fill="#000002" data-color="2"></path>
		<path d="M124.836 61.673c-.612 2.737-2.469 8.808-7.023 9.733a4.288 4.288 0 0 1-.853.087c-4.139 0-7.009-6.227-8.075-8.978 1.364.697 3.829 1.63 7.242 1.63.339 0 .684-.009 1.027-.028 3.876-.21 6.374-1.517 7.682-2.444zm.742-1.267s-2.607 2.902-8.453 3.22c-.342.019-.675.027-1 .027-5.223 0-8.171-2.27-8.171-2.27s3.291 10.603 9.005 10.603c.31 0 .627-.031.951-.097 6.299-1.279 7.668-11.483 7.668-11.483z" fill="#000002" data-color="2"></path>
		<path d="M108.675 53.894c-.379 0-.727-.089-1.032-.266-1.403-.81-1.535-3.217-.294-5.366.93-1.611 2.442-2.694 3.763-2.694.379 0 .727.089 1.032.266.663.383 1.065 1.141 1.132 2.133.069 1.029-.228 2.177-.838 3.233-.931 1.611-2.443 2.694-3.763 2.694z" fill="#000002" data-color="2"></path>
		<path d="M111.111 45.814c.335 0 .641.078.909.233 1.264.73 1.357 3.033.204 5.03-.888 1.538-2.314 2.571-3.549 2.571-.336 0-.641-.078-.909-.233-1.264-.73-1.357-3.033-.204-5.03.888-1.538 2.314-2.571 3.549-2.571zm0-.493c-1.375 0-2.967 1.07-3.976 2.817-1.311 2.27-1.139 4.824.384 5.703a2.28 2.28 0 0 0 1.155.299c1.375 0 2.967-1.07 3.976-2.817 1.311-2.27 1.139-4.824-.384-5.703a2.28 2.28 0 0 0-1.155-.299z" fill="#000002" data-color="2"></path>
		<path d="M127.332 54.046c-1.303 0-2.758-1.201-3.54-2.92-.483-1.061-.66-2.181-.499-3.153.155-.936.606-1.618 1.27-1.921.244-.111.51-.167.791-.167 1.303 0 2.758 1.201 3.54 2.92.982 2.158.636 4.434-.771 5.074a1.899 1.899 0 0 1-.791.167z" fill="#000002" data-color="2"></path>
		<path d="M125.354 46.132c1.209 0 2.573 1.141 3.316 2.775.91 1.999.612 4.173-.649 4.747a1.659 1.659 0 0 1-.689.145c-1.209 0-2.573-1.141-3.316-2.775-.463-1.017-.633-2.086-.48-3.011.141-.853.542-1.469 1.129-1.736.211-.096.443-.145.689-.145zm0-.493c-.31 0-.611.061-.893.19-1.533.697-1.933 3.115-.893 5.4.848 1.864 2.392 3.064 3.765 3.064.31 0 .611-.061.893-.19 1.533-.697 1.933-3.115.893-5.4-.849-1.864-2.393-3.064-3.765-3.064z" fill="#000002" data-color="2"></path>
		<path d="M77.318 128.931a.492.492 0 0 1-.39-.793c.063-.082 6.389-8.331 13.233-19.928 6.819-11.554 9.79-24.977 9.819-25.111a.493.493 0 0 1 .963.209c-.03.136-3.032 13.709-9.933 25.403-6.877 11.652-13.238 19.946-13.301 20.028a.492.492 0 0 1-.391.192z" fill="#000002" data-color="2"></path>
		<path d="M83.09 141.031a.493.493 0 0 1-.369-.82c.096-.108 9.583-10.896 12.41-19.375 2.845-8.536 4.824-21.313 4.843-21.441a.492.492 0 1 1 .974.15c-.02.129-2.01 12.987-4.883 21.603-2.891 8.672-12.211 19.27-12.607 19.717a.49.49 0 0 1-.368.166z" fill="#000002" data-color="2"></path>
		<path d="M107.616 139.509a.493.493 0 0 1-.395-.786c.076-.103 7.654-10.375 11.441-20.031 3.761-9.59 2.068-20.84 2.05-20.952a.493.493 0 1 1 .974-.152c.018.115 1.754 11.621-2.106 21.464-3.836 9.781-11.49 20.155-11.567 20.259a.496.496 0 0 1-.397.198z" fill="#000002" data-color="2"></path>
		<path d="M114.595 163.646a.493.493 0 0 1-.431-.731c.074-.134 7.431-13.501 10.466-22.534 3.022-8.994 2.487-32.635 2.481-32.873a.492.492 0 1 1 .985-.023c.024.978.545 24.052-2.532 33.211-3.063 9.118-10.464 22.562-10.538 22.697a.493.493 0 0 1-.431.253z" fill="#000002" data-color="2"></path>
	</g>
</svg>
